<svg width="24" height="24" viewBox="0 0 24 24" fill="none" xmlns="http://www.w3.org/2000/svg">
<path d="M12.2606 4.74757C12.1908 4.68081 12.098 4.64355 12.0014 4.64355C11.9048 4.64355 11.812 4.68081 11.7422 4.74757L3.11249 12.9915C3.07584 13.0265 3.04668 13.0687 3.02678 13.1153C3.00688 13.162 2.99665 13.2122 2.99671 13.2629L2.9953 21.0001C2.9953 21.3979 3.15334 21.7794 3.43464 22.0607C3.71594 22.342 4.09748 22.5001 4.4953 22.5001H8.99999C9.1989 22.5001 9.38967 22.4211 9.53032 22.2804C9.67097 22.1398 9.74999 21.949 9.74999 21.7501V15.3751C9.74999 15.2756 9.7895 15.1802 9.85982 15.1099C9.93015 15.0396 10.0255 15.0001 10.125 15.0001H13.875C13.9744 15.0001 14.0698 15.0396 14.1402 15.1099C14.2105 15.1802 14.25 15.2756 14.25 15.3751V21.7501C14.25 21.949 14.329 22.1398 14.4697 22.2804C14.6103 22.4211 14.8011 22.5001 15 22.5001H19.5028C19.9006 22.5001 20.2822 22.342 20.5635 22.0607C20.8448 21.7794 21.0028 21.3979 21.0028 21.0001V13.2629C21.0029 13.2122 20.9926 13.162 20.9727 13.1153C20.9528 13.0687 20.9237 13.0265 20.887 12.9915L12.2606 4.74757Z" fill="white"/>
<path d="M23.0114 11.4445L19.5051 8.09016V3C19.5051 2.80109 19.4261 2.61032 19.2855 2.46967C19.1448 2.32902 18.9541 2.25 18.7551 2.25H16.5051C16.3062 2.25 16.1155 2.32902 15.9748 2.46967C15.8342 2.61032 15.7551 2.80109 15.7551 3V4.5L13.0401 1.90406C12.7861 1.64719 12.4083 1.5 12 1.5C11.5931 1.5 11.2162 1.64719 10.9622 1.90453L0.991862 11.4436C0.7003 11.7248 0.663737 12.1875 0.92905 12.4922C0.995674 12.5691 1.07725 12.6316 1.16881 12.676C1.26038 12.7204 1.36002 12.7457 1.46166 12.7503C1.56331 12.755 1.66484 12.7389 1.76007 12.7031C1.8553 12.6672 1.94225 12.6124 2.01561 12.5419L11.7422 3.2475C11.812 3.18074 11.9048 3.14348 12.0014 3.14348C12.098 3.14348 12.1908 3.18074 12.2606 3.2475L21.9881 12.5419C22.1314 12.6793 22.3233 12.7543 22.5218 12.7504C22.7203 12.7465 22.9092 12.6641 23.047 12.5212C23.3348 12.2231 23.3109 11.7309 23.0114 11.4445Z" fill="white"/>
</svg>
