<svg width="24" height="24" viewBox="0 0 24 24" fill="none" xmlns="http://www.w3.org/2000/svg">
<path d="M21.5544 6.3708C21.5091 6.26108 21.4322 6.16727 21.3335 6.10127C21.2348 6.03526 21.1187 6.00002 21 6H13.8C13.6409 6 13.4883 6.06321 13.3758 6.17574C13.2632 6.28826 13.2 6.44087 13.2 6.6C13.2 6.75913 13.2632 6.91174 13.3758 7.02426C13.4883 7.13679 13.6409 7.2 13.8 7.2H19.5516L12.6 14.1516L10.0248 11.5752C9.96908 11.5193 9.90287 11.475 9.82998 11.4447C9.75708 11.4145 9.67894 11.3989 9.60002 11.3989C9.5211 11.3989 9.44295 11.4145 9.37006 11.4447C9.29717 11.475 9.23095 11.5193 9.17522 11.5752L2.57522 18.1752C2.46256 18.2879 2.39926 18.4407 2.39926 18.6C2.39926 18.7593 2.46256 18.9121 2.57522 19.0248C2.68788 19.1375 2.84069 19.2008 3.00002 19.2008C3.15935 19.2008 3.31216 19.1375 3.42482 19.0248L9.60002 12.8484L12.1752 15.4248C12.231 15.4807 12.2972 15.525 12.3701 15.5553C12.443 15.5855 12.5211 15.6011 12.6 15.6011C12.6789 15.6011 12.7571 15.5855 12.83 15.5553C12.9029 15.525 12.9691 15.4807 13.0248 15.4248L20.4 8.0484V13.8C20.4 13.9591 20.4632 14.1117 20.5758 14.2243C20.6883 14.3368 20.8409 14.4 21 14.4C21.1591 14.4 21.3118 14.3368 21.4243 14.2243C21.5368 14.1117 21.6 13.9591 21.6 13.8V6.6C21.6 6.52135 21.5845 6.44347 21.5544 6.3708Z" fill="white"/>
</svg>
