<svg width="24" height="24" viewBox="0 0 24 24" fill="none" xmlns="http://www.w3.org/2000/svg">
<g clip-path="url(#clip0)">
<path d="M0.333367 23.9879C0.418745 24.013 0.509451 23.9991 0.585824 23.9494C0.662197 23.8997 0.718083 23.8182 0.741367 23.7224C1.42803 20.8402 4.2187 20.0932 5.8867 19.6462C6.3047 19.5344 6.6347 19.4459 6.84937 19.3417C8.74937 18.4139 9.3687 16.9214 9.55403 15.8324C9.56505 15.7676 9.56069 15.7007 9.54137 15.6384C9.52206 15.5762 9.48848 15.5207 9.44403 15.4777C8.4547 14.5169 7.62003 13.0747 7.09337 11.4157C7.07851 11.3681 7.05514 11.3245 7.0247 11.2874C6.32803 10.4354 5.92803 9.53468 5.92803 8.81693C5.92803 8.39768 6.0687 8.11643 6.38537 7.90418C6.4328 7.87228 6.47244 7.82761 6.50072 7.7742C6.529 7.72078 6.54503 7.6603 6.54737 7.59818C6.6947 3.77768 9.11337 0.77018 12.08 0.75068L12.1514 0.75593C15.1327 0.80243 17.536 3.87443 17.622 7.74893C17.6232 7.80189 17.6344 7.85395 17.6549 7.90167C17.6754 7.94938 17.7046 7.99166 17.7407 8.02568C17.9494 8.22443 18.0467 8.47643 18.0467 8.81843C18.0467 9.41918 17.762 10.1579 17.246 10.8974C17.2214 10.933 17.2025 10.9731 17.19 11.0159C16.6567 12.9179 15.6994 14.5972 14.5647 15.6247C14.5177 15.6674 14.4818 15.7236 14.461 15.7874C14.4401 15.8512 14.4349 15.9201 14.446 15.9869C14.6314 17.0752 15.2507 18.5669 17.1507 19.4962C17.3754 19.6057 17.724 19.6912 18.166 19.7984C19.8174 20.2004 22.5807 20.8747 23.2587 23.7224C23.2701 23.77 23.2897 23.8146 23.3164 23.8536C23.3431 23.8927 23.3763 23.9254 23.4143 23.95C23.4522 23.9746 23.4941 23.9905 23.5375 23.9969C23.581 24.0033 23.6251 24 23.6674 23.9872C23.7097 23.9744 23.7493 23.9523 23.784 23.9223C23.8187 23.8923 23.8478 23.8548 23.8697 23.8121C23.8915 23.7694 23.9057 23.7223 23.9114 23.6735C23.917 23.6246 23.9141 23.575 23.9027 23.5274C23.1194 20.2372 19.9887 19.4744 18.3074 19.0649C17.9174 18.9697 17.5807 18.8879 17.4167 18.8069C16.1767 18.2009 15.4127 17.2777 15.1427 16.0582C16.294 14.9459 17.2574 13.2299 17.808 11.3054C18.3927 10.4504 18.714 9.56993 18.714 8.81768C18.714 8.31593 18.57 7.89743 18.2847 7.57043C18.126 3.36743 15.46 0.0576797 12.1514 0.00442969L12.052 0.00292969C8.80337 0.0224297 6.12603 3.24518 5.89203 7.37543C5.4747 7.72043 5.2627 8.20418 5.2627 8.81843C5.2627 9.70568 5.7087 10.7669 6.48937 11.7404C7.0287 13.4077 7.8647 14.8724 8.86003 15.8977C8.59137 17.1217 7.8267 18.0479 6.58403 18.6547C6.42337 18.7334 6.10337 18.8197 5.7327 18.9187C4.0387 19.3717 0.8867 20.2154 0.0973671 23.5289C0.0745715 23.625 0.0866276 23.7273 0.130884 23.8134C0.175141 23.8995 0.247974 23.9623 0.333367 23.9879Z" fill="white"/>
</g>
<defs>
<clipPath id="clip0">
<rect width="24" height="24" fill="white"/>
</clipPath>
</defs>
</svg>
