<svg width="20" height="20" viewBox="0 0 20 20" fill="none" xmlns="http://www.w3.org/2000/svg">
<path d="M14.5 0.689453L11.1093 4.0802L6.05425 5.5262C5.56668 5.65734 5.11935 5.90764 4.75252 6.25457C4.38569 6.6015 4.11086 7.03419 3.95275 7.5137L0.895004 16.9555L1.9705 18.031L3.046 19.1065L12.4908 16.0465C12.9678 15.8885 13.3983 15.6149 13.7438 15.25C14.0893 14.8851 14.339 14.4404 14.4708 13.9555L15.9175 8.89445L19.3105 5.49995L14.5 0.689453ZM14.5 2.81045L17.1895 5.49995L15.25 7.43945L12.5605 4.74995L14.5 2.81045ZM11.2825 5.5937L14.4063 8.7167L13.0248 13.5542C12.9585 13.8007 12.8324 14.027 12.6576 14.2129C12.4828 14.3988 12.2647 14.5387 12.0228 14.62L3.7675 17.2937L8.11375 12.9475C8.23967 12.9817 8.36952 12.9993 8.5 13C8.89783 13 9.27936 12.8419 9.56066 12.5606C9.84197 12.2793 10 11.8978 10 11.5C10 11.1021 9.84197 10.7206 9.56066 10.4393C9.27936 10.158 8.89783 9.99995 8.5 9.99995C8.27018 10.0002 8.04348 10.0533 7.83742 10.1551C7.63136 10.2569 7.45144 10.4046 7.31156 10.587C7.17167 10.7693 7.07556 10.9814 7.03065 11.2068C6.98573 11.4322 6.99321 11.6649 7.0525 11.887L2.70625 16.2325L5.3785 7.98245C5.46011 7.73772 5.60137 7.51715 5.78952 7.34065C5.97767 7.16415 6.20681 7.03727 6.45625 6.97145L11.2833 5.59295L11.2825 5.5937Z" fill="white"/>
</svg>
