<svg width="27" height="27" viewBox="0 0 27 27" fill="none" xmlns="http://www.w3.org/2000/svg">
<path d="M23.25 23.25H3.75C3.55109 23.25 3.36032 23.329 3.21967 23.4697C3.07902 23.6103 3 23.8011 3 24C3 24.1989 3.07902 24.3897 3.21967 24.5303C3.36032 24.671 3.55109 24.75 3.75 24.75H23.25C23.4489 24.75 23.6397 24.671 23.7803 24.5303C23.921 24.3897 24 24.1989 24 24C24 23.8011 23.921 23.6103 23.7803 23.4697C23.6397 23.329 23.4489 23.25 23.25 23.25Z" fill="#1C3234"/>
<path d="M13.5 22.11L21.4575 14.1525C21.5804 14.009 21.6446 13.8245 21.6373 13.6357C21.63 13.447 21.5517 13.2679 21.4182 13.1343C21.2846 13.0008 21.1055 12.9225 20.9168 12.9152C20.728 12.9079 20.5435 12.9721 20.4 13.095L14.25 19.2375V3.75C14.25 3.55109 14.171 3.36032 14.0303 3.21967C13.8897 3.07902 13.6989 3 13.5 3C13.3011 3 13.1103 3.07902 12.9697 3.21967C12.829 3.36032 12.75 3.55109 12.75 3.75V19.2375L6.6075 13.095C6.54026 13.0165 6.45753 12.9527 6.36448 12.9077C6.27143 12.8627 6.17008 12.8374 6.06679 12.8334C5.9635 12.8294 5.8605 12.8468 5.76426 12.8845C5.66801 12.9222 5.5806 12.9794 5.50751 13.0525C5.43442 13.1256 5.37723 13.213 5.33952 13.3093C5.30182 13.4055 5.28441 13.5085 5.2884 13.6118C5.29239 13.7151 5.31769 13.8164 5.36271 13.9095C5.40772 14.0025 5.47149 14.0853 5.55 14.1525L13.5 22.11Z" fill="#151C1D"/>
</svg>
